<svg width="112" height="40" viewBox="0 0 112 40" fill="none" xmlns="http://www.w3.org/2000/svg">
<g clip-path="url(#clip0_3868_52851)">
<path d="M17.5979 33.3093C13.3147 35.716 8.00352 35.716 3.74478 33.3093C2.54548 32.6354 1.02799 33.0445 0.342679 34.2238C-0.342636 35.4031 0.073448 36.8953 1.27275 37.5692C4.16086 39.2058 7.4161 40 10.6713 40C13.9266 40 17.1818 39.1817 20.0699 37.5692C21.2692 36.8953 21.6853 35.4031 21 34.2238C20.3147 33.0445 18.7972 32.6354 17.5979 33.3093Z" fill="black"/>
<path d="M19.4088 0C13.2655 0 8.24797 4.93381 8.24797 10.9747C8.24797 11.0951 8.24797 11.2154 8.24797 11.3357C8.24797 11.4079 8.24797 11.4561 8.24797 11.5283V27.7497C8.24797 29.0975 9.37384 30.2046 10.7445 30.2046C12.1151 30.2046 13.241 29.0975 13.241 27.7497V20.1203C15.0032 21.2756 17.1326 21.9495 19.4088 21.9495C25.5766 21.9495 30.5697 17.0156 30.5697 10.9747C30.5697 4.93381 25.5766 0 19.4088 0ZM19.4088 17.0638C16.0067 17.0638 13.241 14.3442 13.241 10.9988C13.241 7.65343 16.0067 4.93381 19.4088 4.93381C22.8109 4.93381 25.5766 7.65343 25.5766 10.9988C25.6011 14.3201 22.8109 17.0638 19.4088 17.0638Z" fill="black"/>
<path d="M35.979 28.6643V15.7641C35.979 15.1143 36.5175 14.5848 37.1783 14.5848C37.8147 14.5848 38.3287 15.0181 38.4266 15.4994C39.2587 14.9699 40.3601 14.5848 41.5105 14.5848C44.521 14.5848 46.993 17.1119 46.993 20.1685C46.993 23.225 44.521 25.6799 41.5105 25.6799C40.3846 25.6799 39.2832 25.343 38.4755 24.7653V28.6883C38.4755 29.3141 37.9126 29.8917 37.1783 29.8917C36.5175 29.8676 35.979 29.29 35.979 28.6643ZM38.4755 20.1444C38.4755 21.0108 38.7692 21.8532 39.3566 22.3586C39.9196 22.9844 40.6783 23.2972 41.5105 23.2972C42.2692 23.2972 43.0524 22.9844 43.6399 22.3586C44.1538 21.8532 44.521 21.0108 44.521 20.1444C44.521 19.278 44.1538 18.4838 43.6399 17.9061C43.0524 17.3045 42.2937 16.9916 41.5105 16.9916C40.6783 16.9916 39.9196 17.3045 39.3566 17.9061C38.7692 18.4838 38.4755 19.278 38.4755 20.1444Z" fill="black"/>
<path d="M50.5417 24.4765C50.5417 25.1745 49.9787 25.704 49.2689 25.704C48.706 25.704 48.241 25.2948 48.0696 24.7894C48.0452 24.6932 48.0207 24.5969 48.0207 24.4765V11.3598C48.0207 10.6619 48.5836 10.1324 49.2689 10.1324C49.9787 10.1324 50.5417 10.6619 50.5417 11.3598V15.2347C51.2759 14.8496 52.0836 14.5848 52.9647 14.5848C55.706 14.5848 57.8843 16.775 57.8843 19.4465V24.4765C57.8843 25.1745 57.3459 25.704 56.6361 25.704C55.9263 25.704 55.3878 25.1745 55.3878 24.4765V19.4465C55.3878 18.1468 54.3109 17.0638 52.9403 17.0397C51.6186 17.0638 50.5417 18.1228 50.5172 19.4465V24.4765H50.5417Z" fill="black"/>
<path d="M59.5242 20.1444C59.5487 17.1119 61.9473 14.5848 65.0312 14.5848C67.9683 14.5848 70.2934 16.7509 70.4892 19.7353V19.8556C70.4892 19.9037 70.4892 20 70.4648 20.0481C70.3913 20.5776 69.9263 20.9386 69.2899 20.9386H62.0941C62.2165 21.4441 62.4613 22.0217 62.8529 22.4067C63.3179 22.9362 64.2235 23.3454 65.0312 23.4176C65.8389 23.4898 66.8179 23.2732 67.3808 22.864C67.8459 22.3827 68.776 22.4308 69.0697 22.7918C69.3634 23.1047 69.5837 23.7786 69.0697 24.2359C67.9683 25.2467 66.6221 25.704 65.0312 25.704C61.9228 25.6799 59.5487 23.1528 59.5242 20.1444ZM61.9718 19.0373H68.3599C68.1396 18.1468 66.9892 16.8472 65.0067 16.6787C63.1221 16.775 62.1676 18.1228 61.9718 19.0373Z" fill="black"/>
<path d="M81.4548 19.2058V24.5247C81.4548 25.1745 80.9408 25.704 80.28 25.704C79.6436 25.704 79.0807 25.1745 79.0807 24.5247V19.2058C79.0807 17.9543 78.0282 16.9675 76.731 16.9675C75.4583 16.9675 74.4793 17.9783 74.4793 19.2058V24.5247C74.4793 24.5969 74.4793 24.6691 74.4303 24.7413C74.308 25.2708 73.8185 25.704 73.231 25.704C72.5457 25.704 72.0317 25.1745 72.0317 24.5247V15.7641C72.0317 15.1143 72.5457 14.5848 73.231 14.5848C73.6961 14.5848 74.1366 14.8496 74.3324 15.2828C75.0178 14.8496 75.8499 14.5848 76.731 14.5848C79.3744 14.5848 81.4548 16.6787 81.4548 19.2058Z" fill="black"/>
<path d="M84.6122 24.0674C83.6331 23.0806 83.0457 21.7088 83.0457 20.1444C83.0457 18.6282 83.6331 17.3285 84.6122 16.2455C85.6401 15.2106 86.9373 14.5608 88.5038 14.5608C89.9968 14.5608 91.3429 15.2106 92.273 16.2455C93.301 17.3044 93.8639 18.6282 93.8639 20.1444C93.8639 21.7088 93.301 23.0806 92.273 24.0674C91.3429 25.1023 89.9968 25.7521 88.5038 25.7521C86.9373 25.7521 85.6156 25.1023 84.6122 24.0674ZM85.5177 20.1444C85.5177 21.1071 85.8115 21.8773 86.3254 22.503C86.8884 23.0325 87.6471 23.3213 88.5038 23.3213C89.287 23.3213 90.0212 23.0325 90.5842 22.503C91.1471 21.8773 91.4653 21.1071 91.4653 20.1444C91.4653 19.2298 91.1471 18.4356 90.5842 17.8339C90.0212 17.3526 89.287 16.9916 88.5038 16.9916C87.6471 16.9916 86.8884 17.3526 86.3254 17.8339C85.8115 18.4356 85.5177 19.2539 85.5177 20.1444Z" fill="black"/>
<path d="M104.951 19.1817V24.5247C104.951 25.1745 104.412 25.704 103.751 25.704C103.115 25.704 102.528 25.1745 102.528 24.5247V19.1817C102.503 17.9543 101.475 16.9675 100.203 16.9675C98.9543 16.9675 97.9263 17.9783 97.9263 19.2539V24.5247C97.9263 24.5728 97.9018 24.645 97.9018 24.6691V24.7413C97.8774 24.7894 97.8774 24.8375 97.8284 24.8857V25.006C97.6326 25.4152 97.1676 25.728 96.7025 25.728C96.6046 25.728 96.5557 25.704 96.4822 25.704C95.9438 25.5596 95.5032 25.1264 95.5032 24.5487V15.7882C95.5032 15.0903 96.0417 14.5848 96.7025 14.5848C97.1676 14.5848 97.6081 14.8255 97.7795 15.2587C98.5137 14.8255 99.3459 14.5848 100.203 14.5848C101.622 14.5848 102.895 15.1625 103.751 16.1252C104.584 15.1625 105.881 14.5848 107.3 14.5848C109.895 14.5848 112 16.6787 112 19.2539V24.5247C112 25.1745 111.461 25.704 110.8 25.704C110.14 25.704 109.577 25.1745 109.577 24.5247V19.2539C109.577 17.9783 108.549 16.9675 107.3 16.9675C106.028 16.9675 105 17.9543 104.951 19.1817Z" fill="black"/>
</g>
<defs>
<clipPath id="clip0_3868_52851">
<rect width="112" height="40" fill="white"/>
</clipPath>
</defs>
</svg>